# xmcd CD database file
#
# Track frame offsets:
#	150
#	9579
#	17717
#	23664
#	30519
#	37269
#	44524
#	54119
#	63226
#	69287
#	77553
#	83695
#	89477
#	97235
#	104708
#	111358
#	118024
#	123255
#	130439
#	137657
#	145149
#	150542
#	161660
#	167119
#	177421
#	184512
#	190714
#	196807
#	203689
#	208627
#	214488
#	221234
#	229465
#	236210
#	242154
#	248031
#	253562
#	260636
#	267913
#	276467
#
# Disc length: 3775 seconds
#
# Revision: 0
# Processed by: cddbd v1.5.2PL0 Copyright (c) Steve Scherf et al.
# Submitted via: CDex 1.70beta2
#
DISCID=530ebd28
DTITLE=Diverse - Kostproben - Magic Music Vol 7
DYEAR=2009
DGENRE=New Age
TTITLE0=Ashima - Shunyata
TTITLE1=Acama - Water Life
TTITLE2=Volker Madert - Yoga Keys
TTITLE3=Acama - Luna Reiki
TTITLE4=Ambient Club - Sofar
TTITLE5=Jürg Zurmühle - Inside
TTITLE6=Ashima - Heart Sutra
TTITLE7=Andy Radovan - Diary
TTITLE8=Kailani Simone Bouvort - Shaman Voice
TTITLE9=Acama - Toscana Magic
TTITLE10=Baco - Blissful Harmony
TTITLE11=Dechen Shak-Dagsay - Spirit of Compassion
TTITLE12=Acama - Magic Emotions
TTITLE13=Acama - Montanera
TTITLE14=Various Artist - Mother Earth Beat
TTITLE15=ASA - Coral of Life
TTITLE16=Alex Mayer and Shyam Kumar Mishar - Flying Carpet two
TTITLE17=Jürg Zurmühle - Pure
TTITLE18=Chantal Füssler Projekt - Planet Voices
TTITLE19=Milind - Prayer from the Heart
TTITLE20=Acama - Music for Pilates
TTITLE21=Dechen Shak-Dagsay - Dewa Che
TTITLE22=Acama - Bell of Tibet
TTITLE23=Gemma Wagner - Voice of the Heart
TTITLE24=Dechen Shak-Dagsay - Dcham Sem
TTITLE25=Markus Stemberger - Inner Moments
TTITLE26=Andrea Fidesser - Walking in the Sand
TTITLE27=Dechen Shak-Dagsay - Tara Devi
TTITLE28=Manose Singh - Buddhas Garden
TTITLE29=Acama and Shyam Kumar Mishra - Hands of Spirit
TTITLE30=Shakti Vilas -  Bhajan Spirit
TTITLE31=Trad Indian vidic - Yoga Spirit of India
TTITLE32=AScama - Ocean Dreams
TTITLE33=Manu Delagado - Made in Silence
TTITLE34=Robert Watt - Highland Mantras
TTITLE35=Alex Mayer - Didg fpr Yoga
TTITLE36=Michael Trybek and the Rainbow Kids - Rainbow Songs
TTITLE37=José Teran - Cafe Latino
TTITLE38=Ambiente Club - Blue Apricot
TTITLE39=A. Radovan and J.Teran - Celebration
EXTD=YEAR: 2009
EXTT0=
EXTT1=
EXTT2=
EXTT3=
EXTT4=
EXTT5=
EXTT6=
EXTT7=
EXTT8=
EXTT9=
EXTT10=
EXTT11=
EXTT12=
EXTT13=
EXTT14=
EXTT15=
EXTT16=
EXTT17=
EXTT18=
EXTT19=
EXTT20=
EXTT21=
EXTT22=
EXTT23=
EXTT24=
EXTT25=
EXTT26=
EXTT27=
EXTT28=
EXTT29=
EXTT30=
EXTT31=
EXTT32=
EXTT33=
EXTT34=
EXTT35=
EXTT36=
EXTT37=
EXTT38=
EXTT39=
PLAYORDER=
